<svg width="23" height="28" viewBox="0 0 23 28" fill="none" xmlns="http://www.w3.org/2000/svg">
<path fill-rule="evenodd" clip-rule="evenodd" d="M11.0265 27.8582C11.0269 27.8583 11.0271 27.8585 11.5 27.2226L11.0265 27.8582ZM11.9735 27.8582L11.9764 27.8562L11.9839 27.8512L12.01 27.8335C12.0324 27.8182 12.0647 27.7961 12.1061 27.7673C12.1889 27.7097 12.3085 27.6253 12.4595 27.5154C12.7615 27.2955 13.1898 26.9732 13.7023 26.5583C14.7263 25.7292 16.0924 24.5258 17.4607 23.0271C20.1775 20.0513 23 15.8043 23 10.9488C23 8.04653 21.7895 5.26213 19.6335 3.20845C17.4771 1.15466 14.5515 0 11.5 0C8.44847 0 5.52288 1.15466 3.36654 3.20845C1.21046 5.26213 0 8.04653 0 10.9488C0 15.8043 2.82251 20.0513 5.5393 23.0271C6.90756 24.5258 8.27367 25.7292 9.29767 26.5583C9.81024 26.9732 10.2385 27.2955 10.5405 27.5154C10.6916 27.6253 10.8111 27.7097 10.8939 27.7673C10.9353 27.7961 10.9676 27.8182 10.99 27.8335L11.0161 27.8512L11.0236 27.8562L11.0265 27.8582C11.3102 28.0473 11.6898 28.0473 11.9735 27.8582ZM11.5 27.2226L11.9735 27.8582C11.9731 27.8583 11.9729 27.8585 11.5 27.2226ZM15.6071 10.889C15.6071 13.0368 13.7683 14.778 11.5 14.778C9.23171 14.778 7.39286 13.0368 7.39286 10.889C7.39286 8.74125 9.23171 7.00009 11.5 7.00009C13.7683 7.00009 15.6071 8.74125 15.6071 10.889Z" fill="#FFC107"/>
</svg>
