<svg width="104" height="57" viewBox="0 0 104 57" fill="none" xmlns="http://www.w3.org/2000/svg">
<rect x="1" y="1" width="102" height="55" fill="white" stroke="white" stroke-width="2"/>
<path d="M14.5477 24.828H28.7677V15.36H37.6237V42H28.7677V31.812H14.5477V42H5.65569V15.36H14.5477V24.828ZM61.9858 37.728V42H39.6898V39.72C39.6898 37.672 40.1698 36.104 41.1298 35.016C42.0898 33.912 43.1538 33.176 44.3218 32.808C45.5058 32.424 46.9538 32.096 48.6658 31.824C49.3378 31.712 50.0738 31.616 50.8738 31.536C51.9298 31.408 52.7538 31.288 53.3458 31.176C53.9538 31.064 54.4578 30.888 54.8578 30.648C55.2578 30.392 55.4578 30.056 55.4578 29.64C55.4578 28.936 54.9698 28.424 53.9938 28.104C53.0178 27.768 51.8338 27.6 50.4418 27.6C49.1138 27.616 47.9858 27.832 47.0578 28.248C46.1298 28.648 45.6658 29.272 45.6658 30.12H39.6898C39.6898 27.656 40.8018 25.976 43.0258 25.08C45.2498 24.168 47.7218 23.712 50.4418 23.712C53.3378 23.712 55.9058 24.096 58.1458 24.864C60.4018 25.632 61.5298 27.24 61.5298 29.688C61.5298 30.968 61.1058 31.992 60.2578 32.76C59.4098 33.512 58.4498 34.048 57.3778 34.368C56.3218 34.688 55.1378 34.96 53.8258 35.184L53.0578 35.328C52.9778 35.328 52.7218 35.368 52.2898 35.448C50.1618 35.752 48.4018 36.08 47.0098 36.432C45.6338 36.768 44.9458 37.2 44.9458 37.728H61.9858ZM80.7199 14.784C84.0079 14.784 86.9719 15.396 89.6119 16.62C92.2759 17.82 94.3519 19.488 95.8399 21.624C97.3519 23.736 98.1079 26.124 98.1079 28.788C98.1079 31.428 97.3519 33.804 95.8399 35.916C94.3519 38.028 92.2879 39.696 89.6479 40.92C87.0079 42.12 84.0439 42.72 80.7559 42.72C77.5879 42.72 74.6599 42.12 71.9719 40.92C69.2839 39.696 67.1479 38.028 65.5639 35.916C64.0039 33.78 63.2239 31.404 63.2239 28.788C63.2239 26.148 64.0039 23.76 65.5639 21.624C67.1479 19.488 69.2719 17.82 71.9359 16.62C74.6239 15.396 77.5519 14.784 80.7199 14.784ZM80.7559 35.988C82.0999 35.988 83.3839 35.7 84.6079 35.124C85.8559 34.548 86.8639 33.72 87.6319 32.64C88.3999 31.56 88.7839 30.276 88.7839 28.788C88.7839 27.3 88.3879 26.016 87.5959 24.936C86.8279 23.832 85.8199 23.004 84.5719 22.452C83.3239 21.876 82.0279 21.588 80.6839 21.588C79.3159 21.588 78.0199 21.876 76.7959 22.452C75.5719 23.028 74.5759 23.868 73.8079 24.972C73.0639 26.052 72.6919 27.324 72.6919 28.788C72.6919 30.276 73.0759 31.56 73.8439 32.64C74.6119 33.72 75.6079 34.548 76.8319 35.124C78.0799 35.7 79.3879 35.988 80.7559 35.988Z" fill="#0F1E3C"/>
</svg>
