<svg width="104" height="57" viewBox="0 0 104 57" fill="none" xmlns="http://www.w3.org/2000/svg">
<rect x="0.999756" y="1" width="102" height="55" fill="white" stroke="white" stroke-width="2"/>
<path d="M51.033 43.005C51.033 43.7489 51.3981 44.4929 52.1282 44.4929H79.8714C80.6014 44.4929 80.9665 44.1209 80.9665 43.3769C80.9665 42.633 82.4266 24.7786 65.9997 24.7786C49.5729 24.7786 51.033 42.261 51.033 43.005Z" fill="#0F1E3C" stroke="white" stroke-width="2"/>
<circle cx="66" cy="20.0645" r="9.85714" fill="#0F1E3C" stroke="white" stroke-width="2"/>
<path d="M21.033 43.005C21.033 43.7489 21.3981 44.4929 22.1282 44.4929H49.8714C50.6014 44.4929 50.9665 44.1209 50.9665 43.3769C50.9665 42.633 52.4266 24.7786 35.9997 24.7786C19.5729 24.7786 21.033 42.261 21.033 43.005Z" fill="#0F1E3C" stroke="white" stroke-width="2"/>
<circle cx="36" cy="20.0645" r="9.85714" fill="#0F1E3C" stroke="white" stroke-width="2"/>
<path d="M33.0388 45.7786C33.0388 46.6357 33.4674 47.4929 34.3245 47.4929H66.896C67.7531 47.4929 68.1817 47.0643 68.1817 46.2071C68.1817 45.35 69.896 24.7786 50.6102 24.7786C31.3245 24.7786 33.0388 44.9214 33.0388 45.7786Z" fill="#0F1E3C" stroke="white" stroke-width="2"/>
<circle cx="50.5712" cy="19.2072" r="11.5714" fill="#0F1E3C" stroke="white" stroke-width="2"/>
</svg>
